<svg xmlns="http://www.w3.org/2000/svg" viewBox="0 0 120 120" fill="none">
  <!-- C letter - orange gradient -->
  <path d="M45 10C20 10 0 32 0 60s20 50 45 50c14 0 26-6 34-17l-1-1C70 102 58 108 45 108 22 108 4 87 4 60S22 12 45 12c14 0 26 7 34 18l1-1C72 17 59 10 45 10z" fill="url(#oGrad)"/>
  <!-- A letter - teal blue -->
  <path d="M68 32c0-12 10-22 22-22h4c12 0 22 10 22 22v78h-8V70H76v40h-8V32zm8 30h32V32c0-8-6-14-14-14h-4c-8 0-14 6-14 14v30z" fill="#1A7A9B"/>
  <defs>
    <linearGradient id="oGrad" x1="0" y1="10" x2="0" y2="110">
      <stop offset="0%" stop-color="#F7A030"/>
      <stop offset="100%" stop-color="#EF6C20"/>
    </linearGradient>
  </defs>
</svg>
